if (_typeface_js && _typeface_js.loadFace) _typeface_js.loadFace({"glyphs":{"S":{"x_min":41,"x_max":730,"ha":798,"o":"m 359 -14 q 207 3 268 -14 q 109 48 145 21 q 56 111 72 76 q 41 179 41 145 q 53 239 41 215 q 88 279 66 264 q 137 302 110 295 q 195 309 165 309 q 208 204 195 249 q 247 129 222 159 q 306 84 272 99 q 381 69 340 69 q 452 80 421 69 q 505 112 483 92 q 538 159 527 132 q 550 219 550 187 q 536 281 550 254 q 493 332 522 309 q 422 377 465 355 q 322 422 379 398 q 202 484 251 452 q 123 552 153 515 q 80 631 93 589 q 68 725 68 674 q 93 840 68 789 q 162 929 118 892 q 268 985 207 965 q 401 1005 329 1005 q 530 992 476 1005 q 620 958 585 979 q 673 906 656 936 q 691 843 691 877 q 680 797 691 818 q 649 761 670 776 q 597 736 628 745 q 524 728 565 728 q 516 790 524 757 q 491 853 508 824 q 446 901 474 882 q 379 920 418 920 q 327 911 352 920 q 284 887 302 903 q 255 847 266 871 q 245 791 245 823 q 254 736 245 762 q 288 686 263 711 q 357 636 313 661 q 470 583 400 612 q 589 523 540 554 q 669 458 638 493 q 715 382 701 423 q 730 289 730 340 q 704 166 730 222 q 629 70 678 110 q 513 8 581 30 q 359 -14 444 -14 "},"/":{"x_min":0,"x_max":392.125,"ha":392,"o":"m 97 -169 l 0 -169 l 296 1055 l 392 1055 l 97 -169 "},"K":{"x_min":38,"x_max":999.140625,"ha":999,"o":"m 590 739 q 627 782 612 762 q 651 817 642 801 q 664 849 660 834 q 669 878 669 864 q 651 910 669 901 q 592 919 634 919 l 592 991 l 961 991 l 961 919 q 908 910 933 919 q 859 885 883 901 q 812 846 835 868 q 764 797 788 824 l 585 595 l 838 185 q 876 131 858 153 q 913 97 895 110 q 951 79 932 84 q 993 74 971 74 l 999 74 l 999 0 l 926 0 q 834 3 874 0 q 766 13 795 6 q 715 30 736 20 q 678 55 694 41 q 649 87 662 69 q 623 127 636 105 l 440 446 l 380 398 l 380 164 q 385 116 380 134 q 400 89 391 99 q 423 77 409 80 q 450 74 436 74 l 508 74 l 508 0 l 38 0 l 38 74 l 95 74 q 122 76 109 74 q 144 87 135 79 q 159 112 154 96 q 165 156 165 129 l 165 833 q 159 877 165 861 q 144 903 154 894 q 122 914 135 911 q 95 918 109 918 l 38 918 l 38 991 l 508 991 l 508 918 l 450 918 q 423 914 436 918 q 400 902 409 911 q 385 875 391 892 q 380 827 380 857 l 380 503 l 590 739 "},"7":{"x_min":63,"x_max":716,"ha":761,"o":"m 224 0 l 587 840 l 228 840 q 172 822 191 840 q 149 769 153 804 l 141 699 l 63 699 l 63 991 l 716 991 l 716 923 l 340 0 l 224 0 "},"d":{"x_min":62,"x_max":864,"ha":883,"o":"m 745 170 q 754 119 745 138 q 779 90 763 100 q 815 76 795 79 q 858 73 835 73 l 864 73 l 864 -1 l 599 -1 l 561 107 l 549 107 q 514 57 534 79 q 469 18 494 34 q 411 -5 443 2 q 339 -14 379 -14 q 221 8 273 -14 q 134 78 169 31 q 80 198 98 125 q 62 370 62 270 q 80 544 62 470 q 133 665 98 617 q 220 736 169 713 q 337 760 271 760 q 406 751 375 760 q 462 728 437 743 q 506 693 487 714 q 540 649 526 673 l 544 649 q 544 721 544 687 q 544 750 544 735 q 544 778 544 765 q 544 802 544 791 q 544 818 544 812 l 544 894 q 534 940 544 923 q 509 966 524 957 q 472 978 493 975 q 428 981 450 981 l 417 981 l 417 1054 l 745 1054 l 745 170 m 398 90 q 465 107 438 90 q 509 159 492 124 q 532 248 525 195 q 538 373 538 301 q 532 494 538 441 q 509 584 525 548 q 465 639 492 620 q 398 658 438 658 q 340 639 364 658 q 300 584 315 620 q 278 494 285 547 q 272 371 272 441 q 300 160 272 230 q 398 90 329 90 "},",":{"x_min":61,"x_max":305,"ha":400,"o":"m 305 58 q 291 -26 305 14 q 249 -103 278 -68 q 173 -166 219 -138 q 61 -213 127 -195 l 61 -141 q 113 -119 91 -130 q 150 -96 135 -108 q 173 -68 165 -83 q 181 -33 181 -53 q 173 -11 181 -20 q 155 4 166 -3 q 131 19 144 11 q 107 39 118 27 q 89 69 96 51 q 82 115 82 87 q 109 186 82 162 q 179 211 137 211 q 271 170 237 211 q 305 58 305 129 "},"Y":{"x_min":0,"x_max":943,"ha":943,"o":"m 224 0 l 224 74 l 287 74 q 318 76 304 74 q 342 86 332 78 q 359 111 353 95 q 366 158 366 128 l 366 351 l 114 844 q 95 878 104 864 q 76 901 86 892 q 51 913 65 909 q 18 918 38 918 l 0 918 l 0 991 l 456 991 l 456 918 l 432 918 q 371 901 391 918 q 351 855 351 884 q 357 817 351 838 q 371 779 363 796 l 472 574 q 507 497 493 530 q 532 430 521 463 q 564 510 546 467 q 605 600 583 553 l 684 766 q 703 817 699 796 q 708 849 708 838 q 685 901 708 885 q 618 918 663 918 l 587 918 l 587 991 l 943 991 l 943 918 l 917 918 q 887 913 899 918 q 864 896 875 908 q 841 863 853 884 q 814 809 830 842 l 583 349 l 583 160 q 588 112 583 129 q 605 86 594 95 q 629 76 615 78 q 658 74 642 74 l 726 74 l 726 0 l 224 0 "},"E":{"x_min":38,"x_max":840.25,"ha":889,"o":"m 381 85 l 653 85 q 688 92 674 85 q 713 114 703 100 q 730 148 724 129 q 740 190 737 167 l 751 255 l 840 255 l 840 0 l 38 0 l 38 74 l 95 74 q 122 76 109 74 q 144 88 135 79 q 159 113 154 96 q 165 156 165 129 l 165 827 q 159 874 165 857 q 145 901 154 892 q 123 914 135 911 q 95 917 110 917 l 38 917 l 38 991 l 796 991 l 796 735 l 704 735 l 697 800 q 672 878 692 851 q 610 906 652 906 l 381 906 l 381 559 l 704 559 l 704 476 l 381 476 l 381 85 "},"y":{"x_min":0,"x_max":788,"ha":788,"o":"m 788 744 l 788 670 q 751 665 767 670 q 723 649 736 660 q 700 617 711 637 q 679 569 689 598 l 629 428 l 577 284 l 525 140 l 474 0 q 428 -118 450 -67 q 383 -206 407 -169 q 331 -268 360 -243 q 265 -307 303 -292 q 177 -327 227 -321 q 60 -334 127 -334 l 37 -334 l 37 -253 q 157 -235 107 -253 q 241 -185 207 -217 q 298 -107 276 -152 q 337 -6 320 -61 l 92 604 q 74 635 84 623 q 53 652 64 646 q 28 660 42 658 q 0 662 15 662 l 0 744 l 388 744 l 388 670 q 325 659 348 670 q 302 618 302 649 q 306 591 302 607 q 315 565 311 575 l 340 501 l 365 433 l 389 367 l 409 311 q 426 263 419 284 q 437 224 432 241 q 444 192 441 207 q 448 163 446 178 q 453 195 449 178 q 462 228 457 212 q 471 257 466 244 l 478 275 l 567 547 q 572 563 570 553 q 577 581 575 572 q 580 599 579 591 q 581 614 581 608 q 555 658 581 646 q 482 670 529 670 l 482 744 l 788 744 "},"\"":{"x_min":91.046875,"x_max":600.140625,"ha":691,"o":"m 91 991 l 303 991 l 242 609 l 152 609 l 91 991 m 388 991 l 600 991 l 552 609 l 462 609 l 388 991 "},"g":{"x_min":3,"x_max":756,"ha":763,"o":"m 756 717 q 751 687 756 701 q 735 661 746 672 q 705 644 724 650 q 659 638 686 638 q 654 663 659 652 q 642 681 650 673 q 626 692 635 688 q 606 696 616 696 q 582 691 595 696 q 562 681 569 686 q 588 645 576 665 q 609 602 600 625 q 623 555 618 579 q 629 504 629 530 q 612 408 629 452 q 562 331 596 364 q 476 281 528 299 q 353 263 425 263 q 335 263 346 263 l 312 263 q 291 264 301 263 q 275 266 280 265 q 257 254 266 261 q 241 238 248 247 q 230 218 234 229 q 226 195 226 208 q 243 161 226 172 q 290 151 261 151 l 454 151 q 571 136 522 151 q 653 94 620 121 q 700 27 685 67 q 716 -61 716 -11 q 692 -176 716 -125 q 619 -261 668 -226 q 496 -315 570 -296 q 321 -334 422 -334 q 81 -284 160 -334 q 3 -139 3 -234 q 50 -23 3 -63 q 187 16 97 16 q 150 38 168 27 q 118 64 132 49 q 95 99 104 80 q 87 143 87 119 q 96 186 87 167 q 121 224 105 206 q 159 258 137 242 q 208 290 181 274 q 153 320 178 300 q 109 366 127 339 q 80 428 91 393 q 70 504 70 462 q 139 693 70 626 q 353 761 208 761 q 443 748 402 761 q 515 718 485 735 l 540 744 q 571 770 554 758 q 610 789 588 781 q 657 797 631 797 q 700 790 682 797 q 731 773 718 784 q 749 748 743 762 q 756 717 756 733 m 164 -138 q 204 -223 164 -195 q 323 -251 245 -251 q 497 -215 443 -251 q 552 -111 552 -180 q 524 -49 552 -67 q 442 -32 497 -32 l 284 -32 q 242 -35 264 -32 q 204 -51 221 -39 q 175 -83 186 -62 q 164 -138 164 -104 m 255 504 q 259 438 255 467 q 276 388 264 409 q 305 355 287 367 q 349 344 323 344 q 395 355 377 344 q 423 387 413 366 q 438 439 434 409 q 443 506 443 469 q 438 576 443 545 q 422 630 433 608 q 393 665 411 652 q 348 678 375 678 q 304 665 322 678 q 275 629 286 652 q 259 574 264 606 q 255 504 255 542 "},"–":{"x_min":-7,"x_max":687,"ha":680,"o":"m 687 323 l -7 323 l -7 422 l 687 422 l 687 323 "},"e":{"x_min":64,"x_max":720,"ha":777,"o":"m 403 671 q 311 613 345 671 q 278 445 278 555 l 512 445 q 505 539 512 497 q 486 610 499 581 q 453 655 473 639 q 403 671 432 671 m 417 -14 q 264 11 330 -14 q 153 86 198 37 q 86 205 109 135 q 64 367 64 276 q 86 538 64 464 q 152 662 109 612 q 258 736 195 711 q 401 761 321 761 q 534 739 475 761 q 634 676 593 718 q 698 572 676 634 q 720 427 720 509 l 720 356 l 274 356 q 287 236 274 286 q 323 153 300 186 q 379 105 346 121 q 455 90 412 90 q 520 98 490 90 q 575 122 550 106 q 618 158 599 137 q 648 202 636 178 q 685 134 685 182 q 669 77 685 104 q 619 30 653 51 q 536 -1 586 10 q 417 -14 486 -14 "},"J":{"x_min":-53,"x_max":486,"ha":501,"o":"m 486 918 l 428 918 q 401 914 414 918 q 378 902 388 911 q 363 875 369 892 q 358 827 358 857 l 358 -2 q 344 -114 358 -65 q 305 -200 330 -163 q 246 -263 280 -237 q 172 -304 212 -288 q 87 -326 132 -319 q -3 -334 42 -334 l -53 -334 l -53 -253 l -28 -253 q 35 -240 4 -253 q 89 -198 66 -227 q 128 -121 113 -169 q 143 -4 143 -73 l 143 833 q 137 877 143 861 q 122 903 132 894 q 100 914 113 911 q 74 918 87 918 l 17 918 l 17 991 l 486 991 l 486 918 "}," ":{"x_min":0,"x_max":0,"ha":350},"|":{"x_min":331,"x_max":429,"ha":761,"o":"m 429 -334 l 331 -334 l 331 1054 l 429 1054 l 429 -334 "}," ":{"x_min":0,"x_max":0,"ha":210},"‐":{"x_min":34,"x_max":388,"ha":422,"o":"m 34 306 l 34 452 l 388 452 l 388 306 l 34 306 "}," ":{"x_min":0,"x_max":0,"ha":525}," ":{"x_min":0,"x_max":0,"ha":1051},"^":{"x_min":62.46875,"x_max":697.171875,"ha":761,"o":"m 349 991 l 408 991 l 697 364 l 590 364 l 378 839 l 168 364 l 62 364 l 349 991 "},"q":{"x_min":62,"x_max":880,"ha":881,"o":"m 403 -334 l 403 -260 l 427 -260 q 470 -257 450 -260 q 505 -245 490 -254 q 529 -219 520 -236 q 538 -173 538 -202 l 538 -72 q 538 -56 538 -66 q 540 -32 538 -45 l 540 -4 q 545 23 545 9 q 545 96 545 56 l 539 96 q 506 52 525 72 q 461 17 486 31 q 406 -5 437 2 q 336 -14 375 -14 q 219 8 271 -14 q 133 78 168 31 q 80 199 98 126 q 62 373 62 272 q 80 545 62 473 q 134 665 98 618 q 221 735 169 712 q 339 758 273 758 q 411 749 379 758 q 468 724 443 740 q 513 686 494 708 q 548 635 533 664 l 561 635 l 588 744 l 864 744 l 864 670 l 858 670 q 815 666 835 670 q 779 653 795 663 q 754 623 763 642 q 745 573 745 604 l 745 -173 q 754 -219 745 -202 q 778 -245 763 -236 q 813 -257 793 -254 q 855 -260 833 -260 l 880 -260 l 880 -334 l 403 -334 m 398 654 q 300 583 329 654 q 272 371 272 513 q 300 160 272 232 q 398 88 329 88 q 465 106 438 88 q 508 160 492 124 q 531 248 524 195 q 538 370 538 301 q 531 495 538 442 q 508 584 524 548 q 465 636 492 619 q 398 654 438 654 "},"b":{"x_min":23,"x_max":819,"ha":883,"o":"m 819 374 q 800 200 819 273 q 747 79 782 126 q 659 8 712 31 q 539 -14 607 -14 q 468 -5 500 -14 q 411 19 437 3 q 366 58 385 36 q 332 107 346 80 l 319 107 l 281 -1 l 23 -1 l 23 73 l 32 73 q 70 76 51 73 q 103 89 88 79 q 127 119 118 100 q 136 169 136 138 l 136 888 q 127 935 136 917 q 104 964 118 953 q 69 977 89 974 q 28 981 50 981 l 23 981 l 23 1054 l 340 1054 l 340 817 q 340 766 340 795 q 340 711 340 737 l 332 649 l 341 649 q 419 730 370 700 q 545 760 468 760 q 662 737 611 760 q 748 667 713 714 q 801 547 783 620 q 819 374 819 474 m 481 658 q 414 640 441 658 q 371 588 387 623 q 349 499 355 552 q 342 374 342 446 q 349 253 342 306 q 371 163 355 199 q 415 108 387 127 q 482 90 442 90 q 580 163 550 90 q 610 376 610 237 q 580 587 610 517 q 481 658 550 658 "},"D":{"x_min":38,"x_max":969,"ha":1044,"o":"m 969 513 q 938 305 969 399 q 847 143 907 210 q 696 37 786 75 q 487 0 606 0 l 38 0 l 38 74 l 95 74 q 123 77 110 74 q 145 89 135 80 q 159 116 154 99 q 165 164 165 134 l 165 832 q 159 877 165 860 q 144 902 154 893 q 122 914 135 911 q 95 917 109 917 l 38 917 l 38 991 l 487 991 q 689 960 600 991 q 841 870 778 930 q 936 721 903 810 q 969 513 969 631 m 739 513 q 667 809 739 712 q 457 906 596 906 l 380 906 l 380 86 l 456 86 q 579 115 525 86 q 667 200 632 145 q 721 335 703 256 q 739 513 739 414 "},"z":{"x_min":25,"x_max":676,"ha":720,"o":"m 501 94 q 536 100 521 94 q 560 119 550 106 q 577 154 570 133 q 590 206 584 176 l 598 251 l 676 251 l 676 0 l 25 0 l 25 56 l 426 649 l 227 649 q 200 644 212 649 q 180 629 189 640 q 164 599 171 617 q 149 552 157 580 l 141 518 l 68 518 l 68 744 l 664 744 l 664 684 l 261 94 l 501 94 "}," ":{"x_min":0,"x_max":0,"ha":131},"w":{"x_min":-4,"x_max":1167,"ha":1166,"o":"m 672 736 l 805 326 q 829 241 822 276 q 841 181 837 206 l 845 181 l 852 214 q 858 246 855 229 l 868 284 q 882 329 874 303 l 941 532 q 950 570 946 549 q 954 602 954 590 q 931 653 954 637 q 864 670 909 670 l 855 670 l 855 744 l 1167 744 l 1167 670 l 1149 670 q 1114 665 1129 670 q 1088 650 1100 661 q 1067 616 1077 638 q 1046 561 1057 595 l 871 0 l 724 0 l 575 460 l 419 0 l 271 0 l 96 596 q 80 632 89 618 q 60 655 71 647 q 34 667 49 663 q 0 670 19 670 l -4 670 l -4 744 l 395 744 l 395 670 l 377 670 q 315 658 335 670 q 295 611 295 646 q 298 583 295 600 q 306 551 302 567 l 357 371 q 369 320 363 346 l 381 268 q 390 221 386 243 q 397 181 395 198 l 401 181 q 417 252 407 215 q 445 341 428 289 l 584 736 l 672 736 "},"$":{"x_min":66.203125,"x_max":692,"ha":760,"o":"m 424 1055 l 424 948 q 528 936 484 948 q 600 906 572 924 q 642 863 629 887 q 656 811 656 838 q 619 738 656 766 q 507 710 582 710 q 502 753 507 730 q 487 799 497 777 q 462 839 477 821 q 424 867 446 857 l 424 597 q 439 590 427 595 q 457 583 450 586 q 564 531 520 557 q 637 473 609 504 q 679 406 666 442 q 692 325 692 369 q 673 227 692 272 q 621 148 655 182 q 536 91 586 113 q 424 62 487 69 l 424 -110 l 348 -110 l 348 60 q 216 78 270 60 q 129 124 162 96 q 80 186 95 152 q 66 253 66 220 q 77 305 66 283 q 105 339 88 326 q 146 358 123 352 q 194 365 169 365 q 204 272 194 312 q 236 202 215 231 q 285 156 256 173 q 348 133 313 138 l 348 432 l 324 442 q 216 497 259 469 q 145 556 172 525 q 107 624 118 588 q 96 706 96 661 q 114 797 96 756 q 166 870 133 839 q 246 921 199 901 q 348 948 292 941 l 348 1055 l 424 1055 m 530 263 q 503 338 530 307 q 424 398 477 369 l 424 135 q 502 182 475 147 q 530 263 530 216 m 256 764 q 259 729 256 746 q 274 696 263 712 q 302 665 285 680 q 348 634 320 650 l 348 874 q 282 839 308 866 q 256 764 256 812 "},"™":{"x_min":38.484375,"x_max":1079,"ha":1136,"o":"m 878 511 l 878 548 q 915 554 901 548 q 931 585 929 561 l 931 895 l 776 511 l 729 511 l 575 896 l 575 590 q 589 555 575 562 q 630 548 603 548 l 630 511 l 465 511 l 465 548 l 478 548 q 515 554 499 548 q 531 586 531 561 l 531 913 q 526 934 531 926 q 515 945 522 941 q 498 950 507 949 q 478 952 488 952 l 465 952 l 465 991 l 621 991 l 771 606 l 925 991 l 1079 991 l 1079 952 l 1064 952 q 1043 950 1053 952 q 1027 945 1034 949 q 1016 932 1020 941 q 1013 909 1013 924 l 1013 590 q 1016 568 1013 576 q 1027 555 1020 560 q 1043 549 1034 550 q 1064 548 1053 548 l 1079 548 l 1079 511 l 878 511 m 280 590 q 284 568 280 576 q 295 555 288 560 q 312 549 302 550 q 331 548 321 548 l 353 548 l 353 511 l 122 511 l 122 548 l 145 548 q 164 549 155 548 q 180 554 174 550 q 191 566 187 558 q 196 586 196 574 l 196 946 l 136 946 q 111 942 121 946 q 95 932 101 938 q 86 916 89 925 q 81 898 82 908 l 76 865 l 38 865 l 38 991 l 439 991 l 439 865 l 402 865 l 396 898 q 382 932 394 917 q 342 946 371 946 l 280 946 l 280 590 "},"\\":{"x_min":0,"x_max":392.125,"ha":392,"o":"m 0 1055 l 96 1055 l 392 -168 l 293 -168 l 0 1055 "},"’":{"x_min":61,"x_max":305,"ha":381,"o":"m 305 838 q 291 753 305 794 q 249 676 278 711 q 173 613 219 641 q 61 566 127 584 l 61 638 q 113 660 91 649 q 150 683 135 671 q 173 711 165 696 q 181 746 181 726 q 173 768 181 760 q 155 784 166 776 q 131 799 144 791 q 107 819 118 807 q 89 849 96 831 q 82 895 82 867 q 109 966 82 942 q 179 991 137 991 q 271 950 237 991 q 305 838 305 909 "},"~":{"x_min":75,"x_max":688,"ha":763,"o":"m 359 450 q 316 468 334 461 q 282 480 297 475 q 253 486 267 484 q 225 488 240 488 q 187 481 207 488 q 147 464 167 475 q 109 438 128 453 q 75 405 90 423 l 75 512 q 239 586 140 586 q 274 584 258 586 q 309 578 291 582 q 350 565 328 573 q 403 543 372 556 q 446 524 428 532 q 480 512 465 517 q 509 506 496 508 q 537 505 523 505 q 576 511 556 505 q 615 529 595 517 q 653 555 634 540 q 688 587 672 570 l 688 481 q 523 407 622 407 q 487 408 504 407 q 453 415 471 410 q 412 428 434 419 q 359 450 390 436 "},"-":{"x_min":34,"x_max":388,"ha":422,"o":"m 34 306 l 34 452 l 388 452 l 388 306 l 34 306 "},"Q":{"x_min":75,"x_max":996,"ha":1071,"o":"m 996 496 q 974 316 996 398 q 910 170 952 234 q 807 62 868 106 q 668 0 745 19 q 686 -126 668 -77 q 733 -203 705 -175 q 793 -242 760 -231 q 861 -253 827 -253 l 883 -253 l 883 -334 l 784 -334 q 663 -315 722 -334 q 554 -257 603 -297 q 473 -155 505 -218 q 441 -5 441 -93 q 278 50 346 8 q 164 158 210 93 q 97 309 119 223 q 75 497 75 395 q 103 706 75 612 q 189 867 132 800 q 333 969 247 933 q 537 1006 420 1006 q 733 969 647 1006 q 877 866 818 933 q 965 706 935 799 q 996 496 996 612 m 304 496 q 316 318 304 396 q 357 186 329 240 q 429 104 384 132 q 536 76 473 76 q 643 104 599 76 q 715 186 688 132 q 754 318 742 240 q 767 496 767 396 q 754 673 767 596 q 715 805 742 751 q 644 887 688 859 q 537 916 600 916 q 429 887 473 916 q 357 805 384 859 q 316 673 329 751 q 304 496 304 596 "},"M":{"x_min":38,"x_max":1258,"ha":1296,"o":"m 822 0 l 822 74 l 835 74 q 872 76 856 74 q 899 87 889 79 q 915 110 910 95 q 921 151 921 126 l 921 854 l 646 0 l 554 0 l 267 854 l 267 164 q 273 116 267 134 q 293 89 280 99 q 325 77 306 80 q 368 74 344 74 l 376 74 l 376 0 l 38 0 l 38 74 l 95 74 q 122 76 109 74 q 144 87 135 79 q 159 112 154 96 q 165 156 165 129 l 165 833 q 159 877 165 861 q 144 903 154 894 q 122 914 135 911 q 95 918 109 918 l 38 918 l 38 991 l 430 991 l 656 320 l 872 991 l 1258 991 l 1258 918 l 1200 918 q 1173 914 1185 918 q 1151 902 1160 911 q 1136 875 1141 892 q 1131 827 1131 857 l 1131 164 q 1136 116 1131 134 q 1151 89 1141 99 q 1173 77 1160 80 q 1200 74 1185 74 l 1257 74 l 1257 0 l 822 0 "},"C":{"x_min":75,"x_max":855,"ha":910,"o":"m 578 97 q 666 108 627 97 q 736 139 705 120 q 789 182 766 158 q 829 229 812 206 q 846 203 840 220 q 853 169 853 187 q 837 107 853 140 q 786 48 822 75 q 691 3 750 21 q 545 -14 632 -14 q 338 22 427 -14 q 191 126 250 59 q 104 287 133 193 q 75 496 75 381 q 104 702 75 609 q 193 863 134 796 q 340 967 252 930 q 544 1005 428 1005 q 681 992 622 1005 q 777 958 739 979 q 835 907 816 936 q 855 843 855 877 q 843 795 855 817 q 811 757 832 773 q 757 732 789 741 q 684 723 725 723 q 676 791 684 757 q 651 853 669 825 q 605 898 634 881 q 534 916 577 916 q 426 888 470 916 q 354 806 381 860 q 315 675 327 753 q 304 496 304 596 q 318 321 304 396 q 365 196 333 246 q 450 121 398 146 q 578 97 502 97 "},"[":{"x_min":136,"x_max":513.140625,"ha":564,"o":"m 136 -178 l 136 1054 l 513 1054 l 513 981 l 454 981 q 411 977 432 981 q 375 963 390 974 q 351 933 360 953 q 343 880 343 913 l 343 -4 q 351 -57 343 -37 q 375 -87 360 -77 q 411 -101 390 -98 q 454 -105 432 -105 l 513 -105 l 513 -178 l 136 -178 "},"L":{"x_min":38,"x_max":840.25,"ha":890,"o":"m 38 0 l 38 74 l 95 74 q 123 77 110 74 q 145 89 135 80 q 159 116 154 99 q 165 164 165 134 l 165 827 q 159 875 165 857 q 145 902 154 892 q 123 914 135 911 q 95 918 110 918 l 38 918 l 38 991 l 508 991 l 508 918 l 450 918 q 423 914 436 918 q 401 903 410 911 q 386 877 392 894 q 381 833 381 861 l 381 85 l 634 85 q 708 115 682 85 q 747 205 735 146 l 769 310 l 840 310 l 840 0 l 38 0 "},"!":{"x_min":142.03125,"x_max":378.3125,"ha":520,"o":"m 150 99 q 158 152 150 131 q 182 187 167 174 q 217 205 197 200 q 261 211 238 211 q 304 205 284 211 q 339 187 324 200 q 364 152 355 174 q 373 99 373 131 q 364 47 373 68 q 339 13 355 26 q 304 -5 324 0 q 261 -11 284 -11 q 217 -5 238 -11 q 182 13 197 0 q 158 47 167 26 q 150 99 150 68 m 142 991 l 378 991 l 298 316 l 222 316 l 142 991 "}," ":{"x_min":0,"x_max":0,"ha":354},"{":{"x_min":41,"x_max":561,"ha":602,"o":"m 431 -174 q 330 -159 374 -174 q 258 -118 287 -145 q 213 -53 228 -91 q 199 31 199 -15 l 199 268 q 186 333 199 308 q 153 373 174 358 q 103 393 131 387 q 41 399 74 399 l 41 485 q 103 490 74 485 q 153 510 131 495 q 186 549 174 524 q 199 613 199 574 l 199 851 q 257 1001 199 949 q 431 1054 316 1054 l 561 1054 l 561 981 l 507 981 q 460 972 478 981 q 430 946 441 963 q 415 904 419 929 q 411 846 411 878 l 411 610 q 375 507 411 547 q 262 448 340 466 l 262 436 q 375 376 340 417 q 411 272 411 335 l 411 35 q 415 -22 411 3 q 430 -65 419 -47 q 460 -91 441 -82 q 507 -100 478 -100 l 561 -100 l 561 -174 l 431 -174 "},"X":{"x_min":13,"x_max":983,"ha":996,"o":"m 712 877 q 705 897 712 889 q 689 910 699 905 q 665 916 679 914 q 635 918 651 918 l 631 918 l 631 991 l 950 991 l 950 918 l 937 918 q 901 912 917 918 q 870 895 885 907 q 838 865 854 884 q 802 817 822 846 l 605 543 l 855 147 q 910 89 882 104 q 964 74 939 74 l 983 74 l 983 0 l 534 0 l 534 74 l 540 74 q 622 119 622 74 q 620 135 622 127 q 614 152 619 142 q 600 177 609 162 q 577 215 592 192 l 451 408 l 305 205 q 281 165 292 187 q 270 120 270 142 q 288 85 270 97 q 352 74 307 74 l 357 74 l 357 0 l 13 0 l 13 74 l 21 74 q 64 80 45 74 q 99 100 83 87 q 131 130 115 112 q 163 170 146 148 l 401 487 l 176 844 q 153 876 164 862 q 129 899 143 890 q 99 913 115 908 q 59 918 82 918 l 41 918 l 41 991 l 492 991 l 492 918 l 488 918 q 449 914 464 918 q 424 906 433 911 q 411 892 415 900 q 408 877 408 885 q 418 841 408 863 q 443 795 428 819 l 557 623 l 675 792 q 699 834 687 811 q 712 877 712 858 "},"P":{"x_min":38,"x_max":828,"ha":869,"o":"m 828 696 q 806 576 828 634 q 737 475 785 519 q 612 405 689 431 q 426 379 536 379 l 380 379 l 380 156 q 385 112 380 129 q 401 87 391 96 q 425 76 411 79 q 452 74 438 74 l 535 74 l 535 0 l 38 0 l 38 74 l 95 74 q 123 77 110 74 q 145 89 135 80 q 159 116 154 99 q 165 164 165 134 l 165 833 q 159 877 165 861 q 144 903 154 894 q 122 914 135 911 q 95 918 109 918 l 38 918 l 38 991 l 456 991 q 620 970 550 991 q 736 912 690 950 q 805 819 782 873 q 828 696 828 765 m 380 460 l 413 460 q 498 472 463 460 q 556 513 533 485 q 588 585 578 541 q 599 691 599 629 q 590 788 599 747 q 561 856 581 829 q 510 895 541 882 q 433 909 478 909 l 380 909 l 380 460 "},"%":{"x_min":47,"x_max":1188,"ha":1234,"o":"m 537 697 q 521 571 537 628 q 476 473 506 514 q 399 410 445 432 q 291 388 353 388 q 180 410 227 388 q 104 473 134 432 q 60 571 74 514 q 47 697 47 628 q 60 824 47 767 q 104 921 74 880 q 181 983 134 961 q 293 1005 227 1005 q 400 983 354 1005 q 476 921 445 961 q 522 824 507 880 q 537 697 537 767 m 201 698 q 205 596 201 641 q 221 521 210 552 q 249 474 232 490 q 291 458 267 458 q 334 474 317 458 q 361 521 351 490 q 376 596 372 552 q 381 698 381 641 q 376 797 381 753 q 362 871 372 841 q 335 918 351 902 q 292 934 318 934 q 250 918 267 934 q 221 871 232 902 q 205 797 210 841 q 201 698 201 753 m 433 0 l 327 0 l 796 990 l 901 990 l 433 0 m 1188 295 q 1172 168 1188 225 q 1127 70 1157 111 q 1050 8 1096 30 q 942 -14 1004 -14 q 830 8 877 -14 q 754 70 784 30 q 710 168 724 111 q 697 295 697 225 q 710 421 697 364 q 754 518 724 477 q 831 580 784 558 q 943 602 878 602 q 1050 580 1004 602 q 1127 518 1096 558 q 1173 421 1158 477 q 1188 295 1188 364 m 851 295 q 855 193 851 238 q 871 118 860 149 q 899 71 882 87 q 942 55 917 55 q 985 71 968 55 q 1012 118 1002 87 q 1027 193 1023 149 q 1032 295 1032 238 q 1027 394 1032 350 q 1013 468 1023 438 q 985 515 1002 499 q 943 531 968 531 q 900 515 918 531 q 871 468 882 499 q 855 394 860 438 q 851 295 851 350 "},"#":{"x_min":38,"x_max":723,"ha":762,"o":"m 679 374 l 679 278 l 509 278 l 458 0 l 362 0 l 412 278 l 271 278 l 219 0 l 122 0 l 174 278 l 38 278 l 38 374 l 192 374 l 239 625 l 82 625 l 82 722 l 257 722 l 305 991 l 402 991 l 353 722 l 495 722 l 545 991 l 642 991 l 592 722 l 723 722 l 723 625 l 574 625 l 528 374 l 679 374 m 288 374 l 431 374 l 479 625 l 336 625 l 288 374 "},"_":{"x_min":-7,"x_max":631,"ha":624,"o":"m 631 -197 l -7 -197 l -7 -115 l 631 -115 l 631 -197 "},"+":{"x_min":88,"x_max":672,"ha":760,"o":"m 428 447 l 428 199 l 330 199 l 330 447 l 88 447 l 88 546 l 330 546 l 330 794 l 428 794 l 428 546 l 672 546 l 672 447 l 428 447 "},"‑":{"x_min":34,"x_max":388,"ha":422,"o":"m 34 306 l 34 452 l 388 452 l 388 306 l 34 306 "},")":{"x_min":44,"x_max":467,"ha":545,"o":"m 248 441 q 239 603 248 524 q 209 752 231 682 q 146 882 186 823 q 44 984 107 941 l 44 1071 q 238 963 157 1025 q 369 822 318 900 q 443 648 420 743 q 467 441 467 553 q 443 233 467 328 q 369 58 420 137 q 238 -83 318 -21 q 44 -193 157 -146 l 44 -104 q 146 -2 107 -61 q 209 128 186 57 q 239 278 231 199 q 248 441 248 358 "},"'":{"x_min":91.046875,"x_max":303.71875,"ha":395,"o":"m 91 991 l 303 991 l 242 609 l 152 609 l 91 991 "},"}":{"x_min":41,"x_max":561,"ha":602,"o":"m 41 -174 l 41 -100 l 94 -100 q 141 -91 123 -100 q 171 -65 160 -82 q 186 -22 182 -47 q 191 35 191 3 l 191 272 q 226 376 191 335 q 340 436 261 417 l 340 448 q 226 507 261 466 q 191 610 191 547 l 191 846 q 186 904 191 878 q 171 946 182 929 q 141 972 160 963 q 94 981 123 981 l 41 981 l 41 1054 l 170 1054 q 344 1001 285 1054 q 403 851 403 949 l 403 613 q 415 549 403 574 q 448 510 427 524 q 498 490 470 495 q 561 485 527 485 l 561 399 q 498 393 527 399 q 448 373 470 387 q 415 333 427 358 q 403 268 403 308 l 403 31 q 388 -53 403 -15 q 343 -118 373 -91 q 271 -159 314 -145 q 170 -174 227 -174 l 41 -174 "}," ":{"x_min":0,"x_max":0,"ha":1051},"a":{"x_min":61,"x_max":771,"ha":815,"o":"m 272 207 q 290 117 272 147 q 349 87 309 87 q 402 99 378 87 q 443 134 426 111 q 469 189 460 157 q 478 262 478 222 l 478 366 l 416 366 q 348 354 376 366 q 303 323 320 343 q 279 274 286 303 q 272 207 272 246 m 393 677 q 349 665 367 677 q 321 634 332 654 q 306 587 310 614 q 302 527 302 559 q 164 548 210 527 q 118 620 118 569 q 140 685 118 658 q 201 729 163 712 q 290 754 239 746 q 399 762 341 762 q 524 749 470 762 q 613 709 577 736 q 667 635 649 681 q 685 525 685 590 l 685 172 q 689 125 685 144 q 702 94 693 105 q 727 78 711 83 q 765 74 743 74 l 771 74 l 771 0 l 518 0 l 489 96 l 478 96 q 435 47 455 67 q 392 12 415 26 q 341 -7 370 0 q 275 -13 313 -13 q 191 0 229 -13 q 123 42 152 13 q 77 113 94 70 q 61 214 61 156 q 137 383 61 328 q 366 438 213 438 l 478 438 l 478 516 q 475 580 478 551 q 463 632 472 610 q 438 665 455 653 q 393 677 421 677 "},"T":{"x_min":16.3125,"x_max":871.6875,"ha":888,"o":"m 552 164 q 557 116 552 134 q 572 89 562 99 q 594 77 581 80 q 621 74 607 74 l 679 74 l 679 0 l 209 0 l 209 74 l 266 74 q 294 77 281 74 q 316 89 306 80 q 330 116 325 99 q 336 164 336 134 l 336 906 l 226 906 q 175 899 196 906 q 142 879 155 892 q 122 849 129 867 q 113 807 116 830 l 104 721 l 16 721 l 16 991 l 871 991 l 871 721 l 783 721 l 774 807 q 765 849 771 830 q 745 879 758 867 q 712 899 732 892 q 661 906 691 906 l 552 906 l 552 164 "},"—":{"x_min":-7,"x_max":1367,"ha":1360,"o":"m 1367 323 l -7 323 l -7 422 l 1367 422 l 1367 323 "},"=":{"x_min":86,"x_max":676,"ha":762,"o":"m 676 410 l 676 313 l 86 313 l 86 410 l 676 410 m 676 679 l 676 582 l 86 582 l 86 679 l 676 679 "},"N":{"x_min":38,"x_max":1050,"ha":1073,"o":"m 797 0 l 267 764 l 267 164 q 272 116 267 134 q 287 89 278 99 q 309 77 296 80 q 336 74 322 74 l 394 74 l 394 0 l 38 0 l 38 74 l 95 74 q 122 77 109 74 q 144 89 135 80 q 159 116 154 99 q 165 164 165 134 l 165 833 q 159 877 165 861 q 144 903 153 894 q 121 914 134 911 q 95 918 109 918 l 38 918 l 38 991 l 340 991 l 821 298 l 821 833 q 815 877 821 861 q 800 903 809 894 q 777 914 790 911 q 751 918 765 918 l 694 918 l 694 991 l 1050 991 l 1050 918 l 992 918 q 965 914 978 918 q 943 902 953 911 q 928 875 933 892 q 923 827 923 857 l 923 0 l 797 0 "},"2":{"x_min":48,"x_max":695,"ha":761,"o":"m 664 774 q 657 711 664 742 q 633 648 650 681 q 590 580 617 616 q 525 500 564 543 q 433 403 486 456 l 313 285 l 176 153 l 493 153 q 565 177 535 153 q 606 249 595 202 l 618 291 l 695 291 l 695 0 l 48 0 l 48 143 l 249 352 q 353 471 312 418 q 417 572 393 524 q 449 667 440 620 q 459 767 459 714 q 430 883 459 846 q 352 920 402 920 q 255 859 283 920 q 227 681 227 799 q 156 688 188 681 q 101 712 124 695 q 65 754 78 728 q 53 817 53 780 q 71 889 53 855 q 128 948 90 923 q 221 989 165 974 q 352 1005 277 1005 q 486 989 428 1005 q 584 943 545 973 q 644 870 624 913 q 664 774 664 828 "},"j":{"x_min":-27,"x_max":352,"ha":471,"o":"m 344 744 l 344 -11 q 318 -166 344 -104 q 247 -265 292 -228 q 138 -318 201 -302 q 0 -334 75 -334 l -27 -334 l -27 -248 l -17 -248 q 48 -235 19 -248 q 97 -195 77 -223 q 127 -119 117 -166 q 137 0 137 -71 l 137 578 q 128 626 137 608 q 104 654 119 644 q 69 666 89 663 q 28 670 49 670 l 24 670 l 24 744 l 344 744 m 119 969 q 127 1014 119 995 q 152 1045 136 1033 q 189 1063 168 1057 q 234 1069 210 1069 q 279 1063 258 1069 q 316 1045 300 1057 q 342 1014 332 1033 q 352 969 352 995 q 342 924 352 943 q 316 893 332 905 q 279 875 300 881 q 234 869 258 869 q 189 875 210 869 q 152 893 168 881 q 127 924 136 905 q 119 969 119 943 "},"Z":{"x_min":57,"x_max":843,"ha":906,"o":"m 816 920 l 304 85 l 598 85 q 666 96 639 85 q 708 128 693 108 q 731 172 724 148 q 740 223 738 197 l 747 286 l 843 286 l 843 0 l 57 0 l 57 69 l 566 906 l 299 906 q 246 897 267 906 q 213 871 226 888 q 195 831 201 855 q 187 779 190 808 l 180 704 l 86 704 l 86 991 l 816 991 l 816 920 "}," ":{"x_min":0,"x_max":0,"ha":175},"u":{"x_min":35.296875,"x_max":874,"ha":908,"o":"m 602 0 l 572 97 l 566 97 q 521 40 545 62 q 470 6 497 18 q 413 -9 443 -5 q 350 -14 382 -14 q 187 53 244 -14 q 131 260 131 120 l 131 571 q 125 621 131 602 q 109 651 120 640 q 80 665 97 661 q 37 670 62 670 l 35 670 l 35 744 l 338 744 l 338 299 q 342 218 338 254 q 359 157 347 182 q 391 117 371 131 q 441 104 411 104 q 497 118 474 104 q 536 160 521 133 q 558 227 551 188 q 565 314 565 266 l 565 581 q 557 629 565 611 q 535 656 549 646 q 504 667 522 665 q 466 670 486 670 l 462 670 l 462 744 l 772 744 l 772 160 q 778 113 772 130 q 797 87 785 96 q 826 76 809 78 q 862 74 842 74 l 874 74 l 874 0 l 602 0 "},"1":{"x_min":57.453125,"x_max":695,"ha":762,"o":"m 133 0 l 133 74 l 244 74 q 274 78 261 74 q 295 92 286 82 q 308 120 304 103 q 312 164 312 137 l 312 859 l 263 800 q 219 755 240 774 q 177 725 197 736 q 136 715 157 715 q 105 722 119 715 q 80 742 91 729 q 63 775 70 756 q 57 817 57 794 q 100 830 78 822 q 148 851 123 838 q 203 881 174 863 q 266 924 233 899 l 362 996 l 515 996 l 515 164 q 518 125 515 142 q 528 97 521 108 q 550 79 536 85 q 585 74 563 74 l 695 74 l 695 0 l 133 0 "}," ":{"x_min":0,"x_max":0,"ha":263},"k":{"x_min":23,"x_max":866.0625,"ha":866,"o":"m 866 3 l 846 3 q 721 3 772 3 q 634 15 671 3 q 571 54 597 28 q 518 123 544 80 l 397 318 l 342 276 l 342 164 q 352 116 342 134 q 376 89 361 99 q 407 77 390 80 q 439 74 425 74 l 456 74 l 456 0 l 23 0 l 23 74 l 38 74 q 71 77 54 74 q 102 89 88 80 q 126 116 116 99 q 136 164 136 134 l 136 897 q 126 941 136 925 q 102 967 116 958 q 70 979 87 976 q 38 982 53 982 l 23 982 l 23 1055 l 339 1055 l 339 519 q 339 475 339 500 q 339 428 339 450 q 339 374 339 402 l 507 570 q 537 611 530 596 q 544 637 544 627 q 525 664 544 654 q 474 674 507 674 l 474 744 l 817 744 l 817 674 q 724 646 769 674 q 624 556 678 618 l 538 456 l 719 181 q 792 100 755 126 q 861 74 828 74 l 866 74 l 866 3 "}," ":{"x_min":0,"x_max":0,"ha":175}," ":{"x_min":0,"x_max":0,"ha":525},"€":{"x_min":37,"x_max":738,"ha":761,"o":"m 490 -14 q 358 6 420 -14 q 247 72 296 27 q 164 190 198 118 q 116 368 130 263 l 37 368 l 37 454 l 109 454 l 109 496 l 109 540 l 37 540 l 37 626 l 115 626 q 160 805 127 733 q 242 921 194 877 q 352 983 291 965 q 480 1002 412 1002 q 588 989 541 1002 q 669 955 636 977 q 720 905 702 934 q 738 841 738 875 q 727 796 738 818 q 694 759 716 775 q 641 733 672 742 q 569 724 610 724 q 563 790 569 756 q 546 851 558 824 q 514 896 534 879 q 465 914 494 914 q 410 902 436 914 q 364 857 384 890 q 329 769 343 825 q 316 626 316 714 l 564 626 l 564 540 l 309 540 l 309 493 l 309 454 l 510 454 l 510 368 l 321 368 q 370 159 321 228 q 514 90 420 90 q 576 98 547 90 q 628 122 605 106 q 670 158 652 137 q 700 202 688 178 q 721 174 714 191 q 729 138 729 157 q 716 85 729 112 q 675 35 703 57 q 601 0 647 13 q 490 -14 556 -14 "},"<":{"x_min":88,"x_max":672,"ha":760,"o":"m 88 467 l 88 524 l 672 849 l 672 740 l 233 495 l 672 254 l 672 144 l 88 467 "},"t":{"x_min":29,"x_max":524,"ha":551,"o":"m 427 98 q 478 101 454 98 q 524 110 502 105 l 524 20 q 495 9 513 15 q 452 -2 476 2 q 397 -10 428 -7 q 331 -14 367 -14 q 248 -2 285 -14 q 184 34 210 8 q 144 102 158 60 q 131 205 131 144 l 131 649 l 29 649 l 29 720 q 107 737 72 720 q 162 778 141 755 q 224 916 204 823 l 338 916 l 338 744 l 512 744 l 512 649 l 338 649 l 338 219 q 358 127 338 156 q 427 98 379 98 "},"W":{"x_min":0,"x_max":1452,"ha":1452,"o":"m 822 982 l 1010 451 q 1032 385 1021 419 l 1051 321 q 1066 265 1059 290 q 1076 221 1073 239 l 1087 276 l 1100 340 l 1115 409 q 1131 478 1123 444 l 1203 777 q 1207 796 1205 785 q 1211 818 1209 807 q 1215 837 1214 828 q 1216 852 1216 846 q 1194 903 1216 888 q 1128 918 1173 918 l 1097 918 l 1097 991 l 1452 991 l 1452 918 l 1426 918 q 1391 913 1406 918 q 1363 898 1375 909 q 1342 865 1351 886 q 1323 809 1332 844 l 1111 0 l 956 0 l 728 651 l 532 0 l 363 0 l 114 844 q 99 880 108 865 q 79 902 91 894 q 52 914 67 911 q 17 918 37 918 l 0 918 l 0 991 l 455 991 l 455 918 l 423 918 q 362 901 382 918 q 342 850 342 885 q 346 817 342 839 q 355 776 350 795 l 447 455 l 462 398 q 478 335 470 367 q 491 275 485 304 q 500 223 497 246 q 520 307 509 268 l 543 387 l 722 982 l 822 982 "},"v":{"x_min":0,"x_max":825,"ha":825,"o":"m 825 670 l 797 670 q 772 666 783 670 q 751 652 761 663 q 731 622 741 642 q 709 568 721 602 l 512 0 l 332 0 l 109 603 q 92 636 101 623 q 69 656 82 648 q 39 666 56 663 q 0 670 22 670 l 0 744 l 422 744 l 422 670 l 365 670 q 332 658 344 670 q 320 625 320 647 q 324 592 320 609 q 332 564 328 576 l 423 301 q 452 213 440 257 q 471 133 464 168 q 480 171 474 149 l 492 213 l 504 251 l 510 274 l 602 553 q 613 591 609 572 q 618 630 618 611 q 603 661 618 653 q 565 670 588 670 l 526 670 l 526 744 l 825 744 l 825 670 "},">":{"x_min":88,"x_max":672,"ha":760,"o":"m 88 144 l 88 254 l 526 495 l 88 740 l 88 849 l 672 524 l 672 467 l 88 144 "},"s":{"x_min":40.265625,"x_max":610,"ha":664,"o":"m 314 -14 q 188 -1 240 -14 q 103 32 136 10 q 55 83 70 53 q 40 148 40 113 q 53 202 40 182 q 85 235 66 223 q 127 250 105 246 q 167 254 149 254 q 177 175 167 210 q 207 116 188 141 q 253 79 226 92 q 313 67 280 67 q 374 74 349 67 q 416 95 400 81 q 441 125 433 108 q 449 162 449 143 q 440 203 449 185 q 412 237 432 221 q 361 268 393 253 q 281 300 329 283 q 183 342 225 320 q 112 392 141 364 q 68 456 83 420 q 54 539 54 493 q 74 636 54 595 q 134 705 95 678 q 226 746 172 732 q 346 760 280 760 q 456 748 410 760 q 529 719 501 737 q 571 678 558 701 q 585 631 585 655 q 552 560 585 584 q 446 536 520 536 q 415 642 446 604 q 326 681 385 681 q 284 675 304 681 q 248 659 263 670 q 224 632 233 648 q 216 595 216 616 q 224 555 216 572 q 253 521 232 537 q 310 489 274 506 q 402 453 346 473 q 485 417 447 437 q 551 369 524 396 q 594 308 579 342 q 610 230 610 274 q 590 127 610 172 q 532 50 570 81 q 439 2 494 19 q 314 -14 384 -14 "},"B":{"x_min":38,"x_max":866,"ha":915,"o":"m 825 739 q 812 658 825 692 q 777 599 800 624 q 723 557 755 575 q 653 527 692 539 l 653 520 q 739 487 700 508 q 806 435 778 465 q 850 363 834 404 q 866 271 866 322 q 768 67 866 134 q 476 0 670 0 l 38 0 l 38 74 l 93 74 q 122 77 109 74 q 144 89 135 80 q 159 116 153 99 q 165 164 165 134 l 165 829 q 159 874 165 856 q 144 901 153 891 q 121 914 134 910 q 93 918 108 918 l 38 918 l 38 991 l 435 991 q 727 930 629 991 q 825 739 825 869 m 380 84 l 470 84 q 547 95 515 84 q 599 127 579 105 q 628 187 619 150 q 637 276 637 223 q 629 365 637 327 q 601 427 621 402 q 551 463 582 451 q 472 476 520 476 l 380 476 l 380 84 m 380 561 l 431 561 q 510 571 479 561 q 561 602 542 581 q 588 657 580 624 q 596 739 596 691 q 587 818 596 786 q 558 869 578 850 q 506 898 538 889 q 429 906 474 906 l 380 906 l 380 561 "},"…":{"x_min":95,"x_max":1146,"ha":1242,"o":"m 95 99 q 103 152 95 131 q 127 187 112 174 q 162 205 142 200 q 206 211 183 211 q 249 205 229 211 q 284 187 269 200 q 309 152 300 174 q 318 99 318 131 q 309 47 318 68 q 284 13 300 26 q 249 -5 269 0 q 206 -11 229 -11 q 162 -5 183 -11 q 127 13 142 0 q 103 47 112 26 q 95 99 95 68 m 509 99 q 517 152 509 131 q 541 187 526 174 q 576 205 556 200 q 620 211 597 211 q 663 205 643 211 q 698 187 683 200 q 723 152 714 174 q 732 99 732 131 q 723 47 732 68 q 698 13 714 26 q 663 -5 683 0 q 620 -11 643 -11 q 576 -5 597 -11 q 541 13 556 0 q 517 47 526 26 q 509 99 509 68 m 923 99 q 931 152 923 131 q 955 187 940 174 q 990 205 970 200 q 1034 211 1010 211 q 1077 205 1056 211 q 1112 187 1097 200 q 1137 152 1128 174 q 1146 99 1146 131 q 1137 47 1146 68 q 1112 13 1128 26 q 1077 -5 1097 0 q 1034 -11 1056 -11 q 990 -5 1010 -11 q 955 13 970 0 q 931 47 940 26 q 923 99 923 68 "},"?":{"x_min":51,"x_max":674,"ha":748,"o":"m 221 99 q 229 152 221 131 q 253 187 238 174 q 288 205 268 200 q 332 211 309 211 q 375 205 355 211 q 410 187 395 200 q 435 152 426 174 q 444 99 444 131 q 435 47 444 68 q 410 13 426 26 q 375 -5 395 0 q 332 -11 355 -11 q 288 -5 309 -11 q 253 13 268 0 q 229 47 238 26 q 221 99 221 68 m 674 749 q 657 650 674 694 q 606 569 640 605 q 521 501 572 532 q 402 442 470 471 l 375 316 l 292 316 l 265 487 q 361 543 323 511 q 419 612 398 575 q 449 690 441 649 q 457 772 457 730 q 451 832 457 805 q 432 880 445 860 q 399 911 419 900 q 350 922 378 922 q 299 907 320 922 q 266 869 279 893 q 248 814 254 846 q 243 747 243 782 q 165 753 201 747 q 105 771 130 759 q 65 801 79 782 q 51 843 51 819 q 68 907 51 877 q 121 958 85 936 q 211 992 156 979 q 340 1005 265 1005 q 473 987 412 1005 q 579 937 534 970 q 648 857 623 904 q 674 749 674 809 "},"H":{"x_min":38,"x_max":1077,"ha":1115,"o":"m 607 0 l 607 74 l 665 74 q 692 77 679 74 q 714 89 705 80 q 729 116 724 99 q 735 164 735 134 l 735 474 l 380 474 l 380 164 q 385 116 380 134 q 400 89 391 99 q 422 77 409 80 q 449 74 435 74 l 508 74 l 508 0 l 38 0 l 38 74 l 95 74 q 122 77 109 74 q 144 89 135 80 q 159 116 154 99 q 165 164 165 134 l 165 832 q 159 876 165 860 q 144 902 153 893 q 121 914 134 911 q 95 917 109 917 l 38 917 l 38 991 l 508 991 l 508 917 l 449 917 q 422 914 435 917 q 400 901 409 911 q 385 874 391 892 q 380 827 380 856 l 380 559 l 735 559 l 735 827 q 729 874 735 856 q 714 901 724 892 q 692 914 705 911 q 665 917 679 917 l 607 917 l 607 991 l 1077 991 l 1077 917 l 1019 917 q 992 914 1005 917 q 970 901 980 911 q 955 874 960 892 q 950 827 950 856 l 950 156 q 955 112 950 129 q 971 87 961 96 q 993 76 980 79 q 1019 74 1005 74 l 1077 74 l 1077 0 l 607 0 "},"c":{"x_min":64,"x_max":667,"ha":717,"o":"m 401 -14 q 264 5 326 -14 q 157 70 202 25 q 88 189 113 116 q 64 369 64 262 q 89 557 64 481 q 159 677 115 632 q 265 742 204 723 q 397 762 326 762 q 513 750 463 762 q 597 719 564 739 q 649 673 631 700 q 667 616 667 646 q 659 572 667 593 q 632 534 651 550 q 578 508 612 518 q 491 498 544 498 q 486 566 491 533 q 472 623 482 599 q 445 662 462 647 q 402 677 428 677 q 349 662 372 677 q 308 612 325 647 q 282 518 291 577 q 274 370 274 459 q 311 159 274 229 q 435 90 349 90 q 501 98 470 90 q 557 122 532 106 q 601 158 582 137 q 632 202 620 178 q 657 175 649 192 q 665 138 665 157 q 649 85 665 112 q 602 35 634 57 q 520 0 570 13 q 401 -14 470 -14 "},"&":{"x_min":64,"x_max":1073,"ha":1090,"o":"m 803 -1 l 709 101 q 652 54 683 75 q 584 18 621 33 q 504 -5 547 2 q 409 -14 460 -14 q 261 6 325 -14 q 153 64 196 26 q 86 156 109 102 q 64 281 64 211 q 82 385 64 342 q 133 460 101 429 q 207 514 165 492 q 296 555 249 536 q 250 617 269 587 q 217 675 230 646 q 199 735 205 704 q 193 801 193 765 q 210 884 193 847 q 261 948 227 921 q 347 990 296 975 q 466 1005 398 1005 q 581 989 532 1005 q 662 946 629 973 q 710 883 694 919 q 727 807 727 847 q 714 731 727 765 q 676 669 701 698 q 611 615 650 640 q 519 565 572 590 q 529 555 522 559 l 722 348 q 734 443 734 396 q 734 530 734 490 l 734 591 l 1034 591 l 1034 518 l 1012 518 q 968 515 990 518 q 928 502 947 512 q 895 474 909 492 q 872 423 881 455 q 847 341 862 385 q 812 252 833 297 l 948 107 q 995 79 967 86 q 1060 73 1023 73 l 1073 73 l 1073 -1 l 803 -1 m 264 275 q 276 198 264 233 q 313 136 289 162 q 369 94 336 109 q 443 79 403 79 q 566 103 516 79 q 649 167 615 127 l 358 484 q 311 440 329 463 q 282 390 293 416 q 267 335 271 364 q 264 275 264 306 m 562 806 q 557 852 562 831 q 542 888 553 873 q 513 913 532 904 q 466 922 494 922 q 426 913 443 922 q 399 888 409 904 q 383 851 388 873 q 378 805 378 830 q 383 759 378 781 q 398 716 388 738 q 425 673 409 695 q 462 627 441 652 q 510 662 490 643 q 540 701 529 680 q 557 749 552 723 q 562 806 562 774 "},"I":{"x_min":38,"x_max":508,"ha":546,"o":"m 38 0 l 38 74 l 95 74 q 123 77 110 74 q 145 89 135 80 q 159 116 154 99 q 165 164 165 134 l 165 826 q 159 874 165 856 q 145 901 154 891 q 123 913 135 910 q 95 917 110 917 l 38 917 l 38 991 l 508 991 l 508 917 l 450 917 q 423 913 436 917 q 400 901 410 910 q 386 874 391 891 q 381 826 381 856 l 381 164 q 386 116 381 134 q 400 89 391 99 q 423 77 410 80 q 450 74 436 74 l 508 74 l 508 0 l 38 0 "},"•":{"x_min":76,"x_max":468,"ha":544,"o":"m 76 494 q 90 598 76 556 q 131 666 105 641 q 193 703 157 692 q 272 714 229 714 q 347 703 311 714 q 410 666 383 692 q 452 598 436 641 q 468 494 468 556 q 452 390 468 432 q 410 322 436 348 q 347 285 383 296 q 272 275 311 275 q 193 285 229 275 q 131 322 157 296 q 90 390 105 348 q 76 494 76 432 "},"G":{"x_min":75,"x_max":1009,"ha":1047,"o":"m 575 -14 q 355 22 449 -14 q 198 126 261 59 q 105 287 136 193 q 75 496 75 381 q 107 702 75 609 q 203 863 140 796 q 362 967 267 930 q 582 1005 457 1005 q 731 992 667 1005 q 837 958 794 979 q 901 907 880 936 q 923 843 923 877 q 911 798 923 819 q 877 760 900 776 q 822 735 855 744 q 747 726 790 726 q 737 803 747 767 q 706 863 727 838 q 653 902 685 888 q 578 916 621 916 q 451 888 503 916 q 366 807 399 860 q 318 675 333 753 q 304 497 304 597 q 319 319 304 397 q 370 189 335 242 q 460 109 405 136 q 596 82 515 82 q 646 82 621 82 q 696 89 672 82 l 696 293 q 671 371 696 349 q 598 393 646 393 l 581 393 l 581 466 l 1009 466 l 1009 393 l 991 393 q 955 387 970 393 q 930 370 940 382 q 915 338 920 358 q 911 288 911 318 l 911 60 q 750 4 831 23 q 575 -14 668 -14 "},"(":{"x_min":78,"x_max":501,"ha":544,"o":"m 297 441 q 305 278 297 358 q 336 128 313 199 q 398 -2 358 57 q 501 -104 438 -61 l 501 -193 q 307 -83 387 -146 q 175 58 226 -21 q 101 233 125 137 q 78 441 78 328 q 101 648 78 553 q 175 822 125 743 q 307 963 226 900 q 501 1071 387 1025 l 501 984 q 398 882 438 941 q 336 752 358 823 q 305 603 313 682 q 297 441 297 524 "},"`":{"x_min":221,"x_max":567,"ha":786,"o":"m 474 841 q 403 888 442 859 q 328 945 364 916 q 262 1003 292 975 q 221 1048 233 1030 l 221 1063 l 434 1063 q 461 1012 445 1039 q 496 958 478 985 l 533 904 l 567 859 l 567 841 l 474 841 "},"U":{"x_min":22,"x_max":995,"ha":1017,"o":"m 995 918 l 936 918 q 909 914 922 918 q 887 902 897 911 q 872 875 877 892 q 867 827 867 857 l 867 285 q 847 160 867 215 q 786 65 827 104 q 680 6 744 27 q 527 -14 616 -14 q 368 3 438 -14 q 249 58 298 20 q 175 156 201 96 q 150 301 150 216 l 150 833 q 144 877 150 861 q 129 903 138 894 q 107 914 119 911 q 80 918 94 918 l 22 918 l 22 991 l 491 991 l 491 918 l 433 918 q 407 914 420 918 q 385 902 394 911 q 370 875 375 892 q 365 827 365 857 l 365 290 q 379 192 365 232 q 420 129 393 153 q 483 94 446 105 q 567 84 521 84 q 649 95 612 84 q 711 132 685 107 q 751 196 737 157 q 765 288 765 235 l 765 833 q 759 877 765 860 q 744 903 754 894 q 722 914 735 911 q 696 918 709 918 l 639 918 l 639 991 l 995 991 l 995 918 "},"F":{"x_min":38,"x_max":796.046875,"ha":846,"o":"m 704 735 l 697 802 q 664 881 691 857 q 596 906 638 906 l 380 906 l 380 527 l 703 527 l 703 445 l 380 445 l 380 164 q 385 116 380 134 q 400 89 391 99 q 423 77 409 80 q 450 74 436 74 l 535 74 l 535 0 l 38 0 l 38 74 l 95 74 q 122 76 109 74 q 144 87 135 79 q 159 112 154 96 q 165 156 165 129 l 165 832 q 159 877 165 860 q 144 902 154 893 q 122 914 135 911 q 95 917 109 917 l 38 917 l 38 991 l 796 991 l 796 735 l 704 735 "},"r":{"x_min":27,"x_max":690.921875,"ha":712,"o":"m 482 0 l 27 0 l 27 74 l 30 74 q 73 77 54 74 q 106 91 92 80 q 128 121 120 101 q 136 173 136 141 l 136 575 q 129 624 136 606 q 109 653 122 643 q 78 666 96 663 q 37 670 60 670 l 33 670 l 33 744 l 308 744 l 336 636 l 342 636 q 371 690 356 666 q 410 729 387 713 q 462 753 432 745 q 534 761 492 761 q 653 732 615 761 q 690 648 690 703 q 645 549 690 584 q 518 514 600 514 q 514 564 518 542 q 504 599 511 585 q 483 621 496 614 q 451 629 470 629 q 409 616 426 629 q 380 585 392 604 q 360 541 368 565 q 348 492 352 517 q 344 445 344 467 q 344 406 344 423 l 344 166 q 351 117 344 136 q 370 89 358 99 q 400 77 383 80 q 438 74 418 74 l 482 74 l 482 0 "},":":{"x_min":95,"x_max":318,"ha":414,"o":"m 95 99 q 103 152 95 131 q 127 187 112 174 q 162 205 142 200 q 206 211 183 211 q 249 205 229 211 q 284 187 269 200 q 309 152 300 174 q 318 99 318 131 q 309 47 318 68 q 284 13 300 26 q 249 -5 269 0 q 206 -11 229 -11 q 162 -5 183 -11 q 127 13 142 0 q 103 47 112 26 q 95 99 95 68 m 95 645 q 103 698 95 676 q 127 732 112 719 q 162 750 142 745 q 206 756 183 756 q 249 750 229 756 q 284 732 269 745 q 309 698 300 719 q 318 645 318 676 q 309 592 318 613 q 284 558 300 571 q 249 539 269 545 q 206 534 229 534 q 162 539 183 534 q 127 558 142 545 q 103 592 112 571 q 95 645 95 613 "},"x":{"x_min":15,"x_max":870,"ha":879,"o":"m 592 628 q 572 661 592 653 q 521 670 553 670 l 518 670 l 518 744 l 832 744 l 832 670 l 820 670 q 784 666 800 670 q 753 652 768 662 q 721 625 737 642 q 682 581 704 608 l 542 406 l 742 147 q 799 90 773 107 q 851 74 826 74 l 870 74 l 870 0 l 437 0 l 437 74 l 444 74 q 525 119 525 74 q 523 135 525 127 q 515 154 521 143 q 500 179 510 165 q 473 214 490 194 l 396 311 l 300 190 q 280 155 288 173 q 272 120 272 138 q 291 85 272 97 q 356 74 310 74 l 361 74 l 361 0 l 15 0 l 15 74 l 26 74 q 69 78 51 74 q 104 92 88 82 q 137 120 121 103 q 175 162 154 136 l 346 373 l 175 597 q 117 652 146 633 q 57 670 89 670 l 40 670 l 40 744 l 468 744 l 468 670 l 463 670 q 425 667 440 670 q 402 658 410 664 q 390 645 393 653 q 387 630 387 638 q 394 601 387 615 q 418 566 401 587 l 493 471 l 557 550 q 582 590 573 571 q 592 628 592 609 "},"*":{"x_min":47.859375,"x_max":635.359375,"ha":683,"o":"m 47 838 l 109 979 l 311 829 l 266 1055 l 419 1055 l 370 831 l 574 976 l 635 837 l 423 783 l 635 727 l 574 589 l 370 734 l 418 510 l 266 510 l 310 735 l 109 588 l 47 726 l 259 783 l 47 838 "},"V":{"x_min":0,"x_max":951,"ha":951,"o":"m 951 918 l 884 918 q 868 913 875 918 q 853 898 860 909 q 838 867 846 887 q 819 816 830 848 l 541 0 l 405 0 l 115 850 q 98 883 109 870 q 76 904 88 896 q 53 914 65 911 q 31 918 41 918 l 0 918 l 0 991 l 449 991 l 449 918 l 386 918 q 367 915 376 918 q 350 907 358 913 q 338 893 343 902 q 334 871 334 884 q 337 841 334 858 q 345 812 341 823 l 484 384 q 495 347 489 368 q 506 303 501 326 q 516 258 511 280 q 522 216 520 235 q 529 247 524 227 q 540 291 534 267 l 554 337 l 567 380 l 707 802 l 713 819 q 718 838 716 828 q 722 856 720 847 q 724 870 724 865 q 709 905 724 893 q 669 918 694 918 l 599 918 l 599 991 l 951 991 l 951 918 "},"h":{"x_min":23.015625,"x_max":872.703125,"ha":908,"o":"m 570 0 l 570 456 q 564 536 570 501 q 545 595 558 571 q 511 631 532 618 q 460 644 490 644 q 404 626 427 644 q 368 579 381 608 q 348 510 354 549 q 342 429 342 471 l 342 164 q 349 117 342 135 q 369 89 356 99 q 400 77 381 80 q 441 74 418 74 l 445 74 l 445 0 l 27 0 l 27 74 l 29 74 q 72 77 52 74 q 105 90 91 80 q 128 119 120 100 q 136 169 136 138 l 136 897 q 126 941 136 925 q 102 967 116 958 q 70 979 87 976 q 38 982 53 982 l 23 982 l 23 1055 l 340 1055 l 340 826 q 340 768 340 799 q 340 710 340 737 l 332 649 l 343 649 q 387 711 364 688 q 436 744 410 733 q 491 759 462 756 q 552 762 520 762 q 646 746 604 762 q 717 698 688 730 q 761 615 746 665 q 777 494 777 564 l 777 172 q 782 120 777 139 q 799 90 788 101 q 828 77 810 80 q 868 74 845 74 l 872 74 l 872 0 l 570 0 "},"0":{"x_min":47,"x_max":715,"ha":762,"o":"m 715 496 q 696 287 715 381 q 637 126 677 193 q 533 22 596 59 q 381 -14 470 -14 q 224 22 288 -14 q 121 126 160 59 q 64 288 81 193 q 47 497 47 382 q 64 706 47 613 q 121 866 81 800 q 224 969 160 933 q 382 1005 288 1005 q 534 969 471 1005 q 637 866 597 933 q 696 706 677 800 q 715 496 715 612 m 263 496 q 263 318 263 396 q 277 186 263 240 q 316 104 291 132 q 380 76 341 76 q 445 104 420 76 q 484 186 470 132 q 499 318 499 240 q 499 496 499 396 q 499 673 499 596 q 485 805 499 751 q 446 886 471 858 q 382 915 421 915 q 317 886 342 915 q 277 805 292 858 q 263 673 263 751 q 263 496 263 596 "},".":{"x_min":95,"x_max":318,"ha":414,"o":"m 95 99 q 103 152 95 131 q 127 187 112 174 q 162 205 142 200 q 206 211 183 211 q 249 205 229 211 q 284 187 269 200 q 309 152 300 174 q 318 99 318 131 q 309 47 318 68 q 284 13 300 26 q 249 -5 269 0 q 206 -11 229 -11 q 162 -5 183 -11 q 127 13 142 0 q 103 47 112 26 q 95 99 95 68 "},"”":{"x_min":61,"x_max":590,"ha":666,"o":"m 590 838 q 576 753 590 794 q 534 676 563 711 q 458 613 504 641 q 346 566 412 584 l 346 638 q 398 660 376 649 q 435 683 420 671 q 457 711 449 696 q 465 746 465 726 q 457 768 465 760 q 439 784 450 776 q 416 799 428 791 q 392 819 403 807 q 374 849 381 831 q 367 895 367 867 q 394 966 367 942 q 464 991 422 991 q 556 950 522 991 q 590 838 590 909 m 305 838 q 291 753 305 794 q 249 676 278 711 q 173 613 219 641 q 61 566 127 584 l 61 638 q 113 660 91 649 q 150 683 135 671 q 173 711 165 696 q 181 746 181 726 q 173 768 181 760 q 155 784 166 776 q 131 799 144 791 q 107 819 118 807 q 89 849 96 831 q 82 895 82 867 q 109 966 82 942 q 179 991 137 991 q 271 950 237 991 q 305 838 305 909 "},"@":{"x_min":69,"x_max":1200,"ha":1253,"o":"m 1200 544 q 1175 359 1200 440 q 1110 222 1150 278 q 1020 136 1071 166 q 919 107 970 107 q 817 137 858 107 q 752 237 775 167 l 743 237 q 712 186 729 210 q 671 144 694 162 q 620 117 648 127 q 556 107 592 107 q 475 121 514 107 q 407 164 436 135 q 360 238 377 193 q 343 344 343 283 q 351 424 343 381 q 379 511 360 468 q 426 594 398 554 q 496 665 455 635 q 590 715 537 696 q 708 734 643 734 q 789 721 755 734 q 844 692 823 709 l 902 721 l 934 721 l 877 374 q 874 353 876 366 q 870 327 872 340 q 868 301 868 313 q 868 280 868 288 q 874 233 868 252 q 890 204 880 215 q 911 190 899 194 q 933 187 922 187 q 988 210 961 187 q 1038 277 1016 233 q 1075 387 1061 322 q 1090 539 1090 453 q 1061 705 1090 634 q 983 825 1033 777 q 863 896 933 872 q 711 921 794 921 q 584 902 647 921 q 465 849 521 884 q 360 762 408 813 q 277 646 312 711 q 222 501 242 580 q 203 330 203 421 q 238 120 203 207 q 336 -20 274 34 q 479 -100 397 -75 q 653 -126 561 -126 q 760 -115 708 -126 q 860 -89 813 -105 q 948 -52 907 -73 q 1020 -9 988 -31 l 1053 -62 q 971 -114 1017 -90 q 872 -157 926 -138 q 759 -186 819 -175 q 633 -197 699 -197 q 484 -182 556 -197 q 349 -137 412 -167 q 235 -63 287 -108 q 146 40 183 -19 q 89 174 109 100 q 69 339 69 249 q 91 517 69 432 q 154 674 113 602 q 253 805 195 746 q 384 905 312 863 q 541 969 457 947 q 720 992 626 992 q 928 957 839 992 q 1078 862 1018 922 q 1169 720 1138 802 q 1200 544 1200 639 m 510 330 q 533 223 510 260 q 597 187 557 187 q 647 201 626 187 q 682 238 668 215 q 706 291 696 262 q 720 350 715 320 l 775 634 q 763 650 771 643 q 745 663 755 658 q 725 670 735 668 q 703 673 714 673 q 641 655 668 673 q 592 608 613 637 q 555 543 570 580 q 529 468 539 506 q 514 394 519 430 q 510 330 510 357 "},"f":{"x_min":26,"x_max":657,"ha":554,"o":"m 26 0 l 26 74 l 55 74 q 87 77 70 74 q 118 89 104 80 q 142 116 132 99 q 152 164 152 134 l 152 649 l 31 649 l 31 744 l 152 744 l 152 795 q 168 911 152 860 q 218 996 184 961 q 305 1049 253 1031 q 429 1068 357 1068 q 539 1060 495 1068 q 609 1038 583 1052 q 646 1006 635 1024 q 657 966 657 988 q 615 898 657 919 q 490 876 574 876 q 486 913 490 893 q 475 949 483 932 q 454 977 467 966 q 421 989 441 989 q 393 979 405 989 q 373 950 381 970 q 362 898 365 930 q 359 820 359 866 l 359 744 l 547 744 l 547 649 l 359 649 l 359 164 q 368 116 359 134 q 392 89 378 99 q 424 77 407 80 q 455 74 441 74 l 520 74 l 520 0 l 26 0 "},";":{"x_min":61,"x_max":318,"ha":400,"o":"m 305 58 q 291 -26 305 14 q 249 -103 278 -68 q 173 -166 219 -138 q 61 -213 127 -195 l 61 -141 q 113 -119 91 -130 q 150 -96 135 -108 q 173 -68 165 -83 q 181 -33 181 -53 q 173 -11 181 -20 q 155 4 166 -3 q 131 19 144 11 q 107 39 118 27 q 89 69 96 51 q 82 115 82 87 q 109 186 82 162 q 179 211 137 211 q 271 170 237 211 q 305 58 305 129 m 95 645 q 103 698 95 676 q 127 732 112 719 q 162 750 142 745 q 206 756 183 756 q 249 750 229 756 q 284 732 269 745 q 309 698 300 719 q 318 645 318 676 q 309 592 318 613 q 284 558 300 571 q 249 539 269 545 q 206 534 229 534 q 162 539 183 534 q 127 558 142 545 q 103 592 112 571 q 95 645 95 613 "},"“":{"x_min":76,"x_max":604,"ha":665,"o":"m 76 719 q 89 804 76 763 q 131 881 102 846 q 206 944 160 916 q 319 991 252 973 l 319 919 q 266 897 289 908 q 230 874 244 886 q 207 846 215 861 q 200 811 200 831 q 207 789 200 797 q 225 773 214 781 l 249 758 q 273 738 262 750 q 291 708 284 727 q 299 662 299 690 q 270 591 299 615 q 200 567 242 567 q 109 607 143 567 q 76 719 76 648 m 361 719 q 374 804 361 763 q 416 881 387 846 q 491 944 445 916 q 604 991 537 973 l 604 919 q 552 897 574 908 q 514 874 529 886 q 491 846 499 861 q 484 811 484 831 q 491 789 484 797 q 510 773 498 781 l 534 758 q 558 738 546 750 q 576 708 569 727 q 584 662 584 690 q 555 591 584 615 q 485 567 527 567 q 394 607 428 567 q 361 719 361 648 "}," ":{"x_min":0,"x_max":0,"ha":263},"i":{"x_min":23,"x_max":456,"ha":479,"o":"m 116 969 q 124 1014 116 995 q 149 1045 133 1033 q 186 1063 165 1057 q 231 1069 207 1069 q 276 1063 255 1069 q 313 1045 297 1057 q 339 1014 329 1033 q 349 969 349 995 q 339 924 349 943 q 313 893 329 905 q 276 875 297 881 q 231 869 255 869 q 186 875 207 869 q 149 893 165 881 q 124 924 133 905 q 116 969 116 943 m 38 74 q 71 77 54 74 q 102 89 88 80 q 126 116 116 99 q 136 164 136 134 l 136 585 q 126 629 136 613 q 102 655 116 646 q 70 667 87 664 q 38 670 53 670 l 23 670 l 23 744 l 343 744 l 343 164 q 352 116 343 134 q 376 89 362 99 q 407 77 390 80 q 439 74 425 74 l 456 74 l 456 0 l 23 0 l 23 74 l 38 74 "},"6":{"x_min":61,"x_max":713,"ha":761,"o":"m 435 923 q 363 898 395 923 q 306 827 330 874 q 269 712 283 780 q 254 556 254 644 q 284 575 266 565 q 325 591 302 584 q 377 603 348 599 q 441 608 406 608 q 553 588 502 608 q 638 531 603 568 q 693 441 674 494 q 713 320 713 388 q 693 184 713 245 q 633 78 673 123 q 535 10 594 34 q 398 -14 476 -14 q 260 14 322 -14 q 154 100 198 42 q 85 247 110 158 q 61 457 61 336 q 84 672 61 572 q 156 845 108 771 q 277 962 204 919 q 449 1005 350 1005 q 561 992 515 1005 q 635 957 606 979 q 677 909 664 936 q 690 851 690 881 q 681 811 690 830 q 653 776 672 791 q 603 752 634 761 q 527 744 572 744 q 522 807 527 775 q 508 864 518 838 q 481 906 498 890 q 435 923 463 923 m 390 523 q 351 517 372 523 q 311 502 330 511 q 277 480 292 492 q 253 456 261 468 q 264 285 253 357 q 296 167 276 213 q 344 99 317 121 q 402 78 371 78 q 485 132 455 78 q 516 306 516 187 q 482 471 516 419 q 390 523 449 523 "},"A":{"x_min":5,"x_max":1024,"ha":1024,"o":"m 295 326 l 256 206 q 245 167 251 189 q 240 127 240 144 q 245 103 240 113 q 259 87 250 93 q 278 77 267 80 q 301 74 289 74 l 359 74 l 359 0 l 5 0 l 5 74 l 21 74 q 54 78 39 74 q 82 93 69 82 q 106 124 95 104 q 130 174 118 143 l 425 991 l 612 991 l 896 173 q 917 125 906 144 q 941 94 928 105 q 968 78 954 83 q 999 74 983 74 l 1024 74 l 1024 0 l 575 0 l 575 74 l 628 74 q 648 77 638 74 q 667 86 659 80 q 681 103 676 92 q 687 127 687 113 q 683 160 687 144 q 675 187 679 175 l 627 326 l 295 326 m 527 638 l 512 688 l 497 741 l 483 796 q 470 846 475 822 q 456 800 464 825 l 439 749 l 422 696 l 404 645 l 324 411 l 599 411 l 527 638 "},"‘":{"x_min":76,"x_max":319,"ha":380,"o":"m 76 719 q 89 804 76 763 q 131 881 102 846 q 206 944 160 916 q 319 991 252 973 l 319 919 q 266 897 289 908 q 230 874 244 886 q 207 846 215 861 q 200 811 200 831 q 207 789 200 797 q 225 773 214 781 l 249 758 q 273 738 262 750 q 291 708 284 727 q 299 662 299 690 q 270 591 299 615 q 200 567 242 567 q 109 607 143 567 q 76 719 76 648 "},"n":{"x_min":27,"x_max":872.703125,"ha":908,"o":"m 570 0 l 570 456 q 564 536 570 501 q 545 595 558 571 q 511 631 532 618 q 461 644 491 644 q 404 626 427 644 q 368 579 382 608 q 348 510 354 549 q 343 429 343 471 l 343 164 q 349 117 343 135 q 369 89 356 99 q 400 77 382 80 q 441 74 418 74 l 445 74 l 445 0 l 27 0 l 27 74 l 29 74 q 72 77 53 74 q 105 90 91 80 q 128 119 120 100 q 136 169 136 138 l 136 579 q 129 626 136 609 q 109 654 122 644 q 78 666 96 663 q 37 670 60 670 l 34 670 l 34 744 l 319 744 l 337 645 l 344 645 q 387 707 364 684 q 436 742 410 730 q 491 758 462 755 q 552 762 520 762 q 646 746 604 762 q 717 698 688 730 q 761 615 746 665 q 777 494 777 564 l 777 172 q 782 120 777 139 q 799 90 788 101 q 828 77 810 80 q 868 74 845 74 l 872 74 l 872 0 l 570 0 "},"O":{"x_min":75,"x_max":996,"ha":1071,"o":"m 996 496 q 965 287 996 381 q 876 126 935 193 q 732 22 817 59 q 536 -14 647 -14 q 333 22 419 -14 q 189 126 246 59 q 103 287 132 193 q 75 497 75 382 q 103 706 75 612 q 189 867 132 800 q 333 969 247 933 q 537 1006 420 1006 q 733 969 647 1006 q 877 866 818 933 q 965 706 935 799 q 996 496 996 612 m 304 496 q 316 318 304 396 q 357 186 329 240 q 429 104 384 132 q 536 76 473 76 q 643 104 599 76 q 715 186 688 132 q 754 318 742 240 q 767 496 767 396 q 754 673 767 596 q 715 805 742 751 q 644 887 688 859 q 537 916 600 916 q 429 887 473 916 q 357 805 384 859 q 316 673 329 751 q 304 496 304 596 "},"3":{"x_min":38,"x_max":699,"ha":761,"o":"m 331 -14 q 198 0 254 -14 q 107 36 143 13 q 54 89 71 59 q 38 152 38 119 q 47 199 38 178 q 72 233 56 219 q 109 254 88 247 q 154 261 130 261 q 166 183 154 216 q 200 127 178 150 q 253 94 222 105 q 321 83 284 83 q 384 92 354 83 q 438 125 415 102 q 475 187 461 148 q 489 287 489 227 q 475 360 489 327 q 434 417 461 393 q 368 455 407 441 q 277 469 329 469 l 193 469 l 193 555 l 283 555 q 359 569 327 555 q 413 611 392 584 q 445 675 434 638 q 456 758 456 713 q 427 877 456 834 q 343 920 398 920 q 283 901 306 920 q 247 853 260 883 q 230 784 235 822 q 226 705 226 745 q 95 735 140 705 q 49 828 49 765 q 68 897 49 865 q 125 953 87 929 q 219 991 162 977 q 349 1005 275 1005 q 480 990 422 1005 q 579 946 538 975 q 642 874 620 916 q 664 778 664 832 q 648 692 664 731 q 604 622 632 653 q 538 567 576 590 q 456 528 500 544 q 540 504 497 521 q 618 459 583 487 q 676 388 653 430 q 699 285 699 345 q 668 143 699 201 q 585 50 637 85 q 467 0 534 15 q 331 -14 401 -14 "},"]":{"x_min":50.859375,"x_max":428,"ha":564,"o":"m 428 1054 l 428 -178 l 50 -178 l 50 -105 l 109 -105 q 152 -101 132 -105 q 188 -87 173 -98 q 212 -57 203 -77 q 221 -4 221 -37 l 221 880 q 212 933 221 913 q 188 963 203 953 q 152 977 173 974 q 109 981 132 981 l 50 981 l 50 1054 l 428 1054 "},"m":{"x_min":27,"x_max":1306.03125,"ha":1341,"o":"m 570 0 l 570 456 q 564 536 570 501 q 545 595 558 571 q 511 631 532 618 q 461 644 491 644 q 404 626 427 644 q 368 579 382 608 q 348 510 354 549 q 343 429 343 471 l 343 164 q 349 117 343 135 q 369 89 356 99 q 400 77 382 80 q 441 74 418 74 l 445 74 l 445 0 l 27 0 l 27 74 l 29 74 q 72 77 53 74 q 105 90 91 80 q 128 119 120 100 q 136 169 136 138 l 136 583 q 129 630 136 613 q 109 658 122 648 q 78 670 96 667 q 37 674 60 674 l 34 674 l 34 744 l 319 744 l 337 645 l 344 645 q 387 707 364 684 q 436 742 410 730 q 491 758 462 755 q 552 762 520 762 q 680 734 627 762 q 758 645 733 706 l 770 645 q 815 707 790 684 q 866 742 839 730 q 924 758 894 755 q 986 762 954 762 q 1080 746 1039 762 q 1151 698 1122 730 q 1195 615 1180 665 q 1211 494 1211 564 l 1211 172 q 1216 120 1211 139 q 1233 90 1222 101 q 1262 77 1244 80 q 1302 74 1279 74 l 1306 74 l 1306 0 l 1004 0 l 1004 456 q 979 595 1004 546 q 895 644 955 644 q 841 628 863 644 q 804 585 818 612 q 783 521 790 557 q 777 445 777 485 l 777 172 q 782 120 777 139 q 799 90 788 101 q 828 77 810 80 q 868 74 845 74 l 872 74 l 872 0 l 570 0 "},"9":{"x_min":48,"x_max":700,"ha":761,"o":"m 309 -14 q 204 0 247 -14 q 135 34 162 12 q 97 84 109 56 q 86 142 86 112 q 101 193 86 173 q 152 221 117 214 q 176 163 162 190 q 210 116 190 136 q 256 84 230 96 q 317 73 283 73 q 460 174 410 73 q 510 474 510 275 q 478 437 497 454 q 433 408 458 420 q 379 388 409 395 q 314 381 349 381 q 207 399 256 381 q 122 454 158 418 q 67 544 87 490 q 48 668 48 598 q 69 805 48 743 q 130 911 90 867 q 228 980 170 956 q 359 1005 286 1005 q 495 977 433 1005 q 603 893 558 950 q 674 748 649 836 q 700 538 700 660 q 678 323 700 423 q 609 147 656 222 q 488 29 562 72 q 309 -14 414 -14 m 372 481 q 457 506 421 481 q 513 573 492 531 q 502 726 513 662 q 472 831 491 790 q 426 892 453 872 q 367 912 399 912 q 277 853 309 912 q 245 676 245 794 q 276 530 245 580 q 372 481 308 481 "},"l":{"x_min":23,"x_max":456,"ha":479,"o":"m 38 74 q 71 77 54 74 q 102 89 88 80 q 126 116 116 99 q 136 164 136 134 l 136 897 q 126 941 136 925 q 102 967 116 958 q 70 979 87 976 q 38 982 53 982 l 23 982 l 23 1055 l 343 1055 l 343 164 q 352 116 343 134 q 376 89 362 99 q 408 77 390 80 q 440 74 425 74 l 456 74 l 456 0 l 23 0 l 23 74 l 38 74 "},"8":{"x_min":41,"x_max":720,"ha":761,"o":"m 41 252 q 55 333 41 297 q 96 398 69 369 q 159 452 122 428 q 240 500 196 477 q 116 609 159 548 q 73 752 73 670 q 89 846 73 800 q 142 927 105 891 q 240 983 179 962 q 388 1005 300 1005 q 514 986 460 1005 q 604 935 568 968 q 659 858 641 903 q 678 761 678 814 q 665 688 678 720 q 628 630 652 656 q 570 581 604 604 q 494 537 536 559 q 598 475 554 506 q 668 411 641 445 q 707 340 695 377 q 720 261 720 303 q 696 144 720 196 q 627 58 672 93 q 518 4 583 23 q 371 -14 454 -14 q 224 7 286 -14 q 121 63 161 28 q 60 148 80 99 q 41 252 41 197 m 378 65 q 441 77 413 65 q 489 113 469 90 q 520 168 509 136 q 531 238 531 200 q 519 299 531 272 q 484 351 508 327 q 422 397 460 375 q 332 445 385 420 q 290 410 310 430 q 255 367 270 391 q 233 313 241 343 q 225 247 225 283 q 235 173 225 206 q 267 115 246 139 q 315 78 287 91 q 378 65 343 65 m 507 764 q 498 822 507 793 q 474 873 490 851 q 434 910 458 896 q 379 924 411 924 q 330 912 351 924 q 293 879 308 900 q 271 830 279 858 q 264 768 264 802 q 273 705 264 732 q 301 657 283 678 q 347 618 320 635 q 411 583 375 600 q 454 615 436 598 q 484 654 472 632 q 501 702 495 676 q 507 764 507 729 "},"p":{"x_min":18,"x_max":814,"ha":878,"o":"m 33 -260 q 66 -256 49 -260 q 97 -244 83 -253 q 121 -217 111 -234 q 131 -169 131 -199 l 131 573 q 124 623 131 604 q 104 653 117 642 q 75 666 92 663 q 39 670 58 670 l 30 670 l 30 744 l 296 744 l 321 635 l 327 635 q 361 685 341 662 q 406 723 380 707 q 463 749 432 740 q 534 758 495 758 q 654 735 602 758 q 742 664 707 712 q 795 543 777 616 q 814 369 814 470 q 796 196 814 269 q 743 75 778 123 q 657 5 708 28 q 540 -17 606 -17 q 414 13 462 -17 q 336 94 365 43 l 327 94 l 335 31 q 335 -23 335 6 q 335 -74 335 -52 l 335 -169 q 344 -217 335 -199 q 369 -244 354 -234 q 401 -256 384 -253 q 434 -260 419 -260 l 464 -260 l 464 -334 l 18 -334 l 18 -260 l 33 -260 m 476 86 q 574 156 544 86 q 604 367 604 226 q 574 580 604 506 q 477 654 544 654 q 410 635 437 654 q 366 580 382 616 q 344 490 350 544 q 337 369 337 437 q 344 244 337 297 q 366 155 350 191 q 409 103 382 120 q 476 86 435 86 "},"4":{"x_min":18,"x_max":735,"ha":761,"o":"m 594 258 l 594 173 q 602 121 594 140 q 626 91 611 101 q 661 77 641 80 q 704 74 682 74 l 722 74 l 722 0 l 245 0 l 245 74 l 283 74 q 326 77 306 74 q 361 91 346 80 q 385 121 376 101 q 395 173 395 140 l 395 258 l 18 258 l 18 343 l 404 991 l 594 991 l 594 350 l 735 350 l 735 258 l 594 258 m 397 592 q 397 724 397 653 q 404 859 397 794 q 383 815 397 843 l 351 756 l 319 699 q 296 659 304 672 l 112 350 l 397 350 l 397 592 "}," ":{"x_min":0,"x_max":0,"ha":58},"R":{"x_min":38,"x_max":967.90625,"ha":963,"o":"m 38 74 l 95 74 q 121 76 109 74 q 144 87 134 79 q 159 112 153 96 q 165 156 165 129 l 165 833 q 159 877 165 861 q 144 903 153 894 q 121 914 134 911 q 95 918 109 918 l 38 918 l 38 991 l 476 991 q 759 925 669 991 q 850 734 850 859 q 834 636 850 679 q 791 561 818 593 q 732 507 765 529 q 664 471 698 485 l 826 187 q 859 135 843 157 q 892 100 876 114 q 926 80 908 86 q 962 74 943 74 l 967 74 l 967 0 l 923 0 q 816 4 862 0 q 737 23 771 9 q 677 61 702 37 q 631 124 652 86 l 470 430 l 380 430 l 380 156 q 385 112 380 129 q 400 87 391 96 q 423 76 410 79 q 449 74 435 74 l 508 74 l 508 0 l 38 0 l 38 74 m 380 511 l 456 511 q 535 523 503 511 q 585 562 566 536 q 612 625 604 587 q 621 715 621 664 q 611 804 621 768 q 582 864 602 841 q 530 898 562 888 q 453 909 498 909 l 380 909 l 380 511 "}," ":{"x_min":0,"x_max":0,"ha":210},"o":{"x_min":64,"x_max":770.6875,"ha":834,"o":"m 770 374 q 680 82 770 178 q 415 -14 590 -14 q 268 10 333 -14 q 158 82 203 34 q 88 203 112 130 q 64 374 64 277 q 154 666 64 570 q 419 762 244 762 q 566 738 501 762 q 676 666 631 714 q 746 545 722 618 q 770 374 770 472 m 275 374 q 282 244 275 300 q 307 150 290 188 q 351 92 324 112 q 418 73 378 73 q 484 92 457 73 q 528 150 511 112 q 552 244 545 188 q 560 374 560 300 q 552 505 560 449 q 527 598 544 561 q 483 654 510 635 q 416 673 456 673 q 350 654 377 673 q 306 598 322 635 q 282 505 289 561 q 275 374 275 449 "},"5":{"x_min":54,"x_max":688,"ha":760,"o":"m 312 83 q 376 93 346 83 q 429 130 406 104 q 466 198 452 155 q 480 304 480 241 q 431 459 480 408 q 294 510 382 510 q 247 507 268 510 q 208 502 226 505 q 174 494 190 498 q 143 485 159 489 l 81 510 l 124 991 l 643 991 l 643 738 l 568 738 l 557 785 q 550 807 554 797 q 539 823 546 816 q 522 834 532 830 q 494 838 511 838 l 212 838 q 210 826 212 837 q 208 796 208 814 q 204 755 208 778 l 200 708 l 190 580 q 217 589 200 585 q 254 596 234 593 q 296 600 274 600 q 339 600 319 600 q 482 581 418 600 q 592 526 547 562 q 663 433 638 489 q 688 304 688 378 q 655 153 688 214 q 572 54 623 92 q 458 1 521 17 q 333 -14 394 -14 q 203 0 256 -14 q 117 37 150 13 q 68 90 83 60 q 54 153 54 121 q 83 226 54 202 q 163 250 113 250 q 170 190 163 220 q 195 136 178 160 q 242 97 213 112 q 312 83 270 83 "}}}
